<!--
  CATAITO 教程封面（模板 v1.0 固定规范，2026-08-06）
  Codex Desktop MCP Guide — 仅改动：logo path / 标题 / 终端文本 / 按钮
-->
<svg width="1200" height="630" viewBox="0 0 1200 630" fill="none" xmlns="http://www.w3.org/2000/svg">
  <defs>
    <linearGradient id="bg" x1="0" y1="0" x2="1200" y2="630" gradientUnits="userSpaceOnUse">
      <stop offset="0" stop-color="#0B1326"/>
      <stop offset="1" stop-color="#1E1B4B"/>
    </linearGradient>
    <linearGradient id="accent" x1="0" y1="0" x2="1200" y2="0" gradientUnits="userSpaceOnUse">
      <stop offset="0" stop-color="#4CD7F6"/>
      <stop offset="0.5" stop-color="#6366F1"/>
      <stop offset="1" stop-color="#A855F7"/>
    </linearGradient>
    <radialGradient id="glow" cx="0.5" cy="0.5" r="0.5">
      <stop offset="0" stop-color="#6366F1" stop-opacity="0.35"/>
      <stop offset="1" stop-color="#6366F1" stop-opacity="0"/>
    </radialGradient>
  </defs>

  <rect width="1200" height="630" fill="url(#bg)"/>
  <circle cx="950" cy="180" r="320" fill="url(#glow)"/>

  <!-- Terminal mockup -->
  <rect x="680" y="140" width="420" height="330" rx="16" fill="#161618" stroke="#2C2C2E" stroke-width="2"/>
  <rect x="680" y="140" width="420" height="44" rx="16" fill="#1D1D1F"/>
  <rect x="680" y="168" width="420" height="16" fill="#1D1D1F"/>
  <circle cx="704" cy="162" r="6" fill="#FF5F57"/>
  <circle cx="726" cy="162" r="6" fill="#FEBC2E"/>
  <circle cx="748" cy="162" r="6" fill="#28C840"/>
  <text x="700" y="240" font-family="monospace" font-size="18" fill="#4CD7F6">$ codex mcp add github</text>
  <text x="700" y="276" font-family="monospace" font-size="16" fill="#9E9EA4">MCP server registered in config.toml</text>
  <text x="700" y="306" font-family="monospace" font-size="16" fill="#9E9EA4">Desktop: Settings → MCP Servers</text>
  <text x="700" y="342" font-family="monospace" font-size="16" fill="#7C7C82">▸ Enabling github server...</text>
  <text x="700" y="372" font-family="monospace" font-size="16" fill="#6366F1">✓ Connected — 12 tools available</text>
  <rect x="700" y="396" width="220" height="34" rx="17" fill="#6366F1"/>
  <text x="810" y="418" font-family="sans-serif" font-size="14" fill="#FFFFFF" text-anchor="middle" font-weight="bold">ENABLE</text>

  <!-- Codex logo -->
  <g transform="translate(80,90) scale(3.5)" fill="#FFFFFF">
    <path d="M8.086.457a6.105 6.105 0 013.046-.415c1.333.153 2.521.72 3.564 1.7a.117.117 0 00.107.029c1.408-.346 2.762-.224 4.061.366l.063.03.154.076c1.357.703 2.33 1.77 2.918 3.198.278.679.418 1.388.421 2.126a5.655 5.655 0 01-.18 1.631.167.167 0 00.04.155 5.982 5.982 0 011.578 2.891c.385 1.901-.01 3.615-1.183 5.14l-.182.22a6.063 6.063 0 01-2.934 1.851.162.162 0 00-.108.102c-.255.736-.511 1.364-.987 1.992-1.199 1.582-2.962 2.462-4.948 2.451-1.583-.008-2.986-.587-4.21-1.736a.145.145 0 00-.14-.032c-.518.167-1.04.191-1.604.185a5.924 5.924 0 01-2.595-.622 6.058 6.058 0 01-2.146-1.781c-.203-.269-.404-.522-.551-.821a7.74 7.74 0 01-.495-1.283 6.11 6.11 0 01-.017-3.064.166.166 0 00.008-.074.115.115 0 00-.037-.064 5.958 5.958 0 01-1.38-2.202 5.196 5.196 0 01-.333-1.589 6.915 6.915 0 01.188-2.132c.45-1.484 1.309-2.648 2.577-3.493.282-.188.55-.334.802-.438.286-.12.573-.22.861-.304a.129.129 0 00.087-.087A6.016 6.016 0 015.635 2.31C6.315 1.464 7.132.846 8.086.457zm-.804 7.85a.848.848 0 00-1.473.842l1.694 2.965-1.688 2.848a.849.849 0 001.46.864l1.94-3.272a.849.849 0 00.007-.854l-1.94-3.393zm5.446 6.24a.849.849 0 000 1.695h4.848a.849.849 0 000-1.696h-4.848z"/>
  </g>

  <!-- Title -->
  <text x="170" y="148" font-family="sans-serif" font-size="48" font-weight="bold" fill="#FFFFFF">Codex Desktop</text>
  <text x="170" y="200" font-family="sans-serif" font-size="28" fill="#F0F0F0">MCP Beginner's Guide</text>
  <text x="170" y="240" font-family="sans-serif" font-size="16" fill="#9E9EA4">Connect Codex Desktop to external data and services</text>

  <rect x="80" y="290" width="420" height="4" rx="2" fill="url(#accent)"/>
  <text x="80" y="340" font-family="sans-serif" font-size="16" fill="#9E9EA4">Enable · Manage · Use</text>
  <text x="80" y="372" font-family="sans-serif" font-size="16" fill="#9E9EA4">Windows · macOS · Linux</text>

  <text x="80" y="570" font-family="sans-serif" font-size="22" font-weight="bold" fill="#FFFFFF">CATAITO</text>
  <text x="80" y="596" font-family="sans-serif" font-size="14" fill="#9E9EA4">cataito.com — AI tutorials</text>
</svg>