<svg xmlns="http://www.w3.org/2000/svg" width="1200" height="675" viewBox="0 0 1200 675" font-family="'Inter','Helvetica Neue','PingFang SC','Microsoft YaHei',sans-serif">
  <defs>
    <pattern id="grid" x="0" y="0" width="60" height="60" patternUnits="userSpaceOnUse">
      <path d="M 60 0 L 0 0 0 60" fill="none" stroke="#ffffff" stroke-opacity="0.035" stroke-width="1"/>
    </pattern>
    <radialGradient id="halo" cx="72%" cy="50%" r="32%">
      <stop offset="0%" stop-color="#6C8EBF" stop-opacity="0.18"/>
      <stop offset="60%" stop-color="#6C8EBF" stop-opacity="0.04"/>
      <stop offset="100%" stop-color="#6C8EBF" stop-opacity="0"/>
    </radialGradient>
    <linearGradient id="accent" x1="0%" y1="0%" x2="100%" y2="0%">
      <stop offset="0%" stop-color="#7C9DD6"/>
      <stop offset="100%" stop-color="#A8C4E8"/>
    </linearGradient>
  </defs>

  <rect width="1200" height="675" fill="#0B1118"/>
  <rect width="1200" height="675" fill="url(#grid)"/>

  <ellipse cx="900" cy="337" rx="260" ry="260" fill="url(#halo)"/>

  <g fill="#7C9DD6" fill-opacity="0.55">
    <circle cx="600" cy="140" r="2.5"/>
    <circle cx="660" cy="110" r="1.8"/>
    <circle cx="720" cy="170" r="2.2"/>
    <circle cx="780" cy="120" r="1.6"/>
    <circle cx="580" cy="220" r="2"/>
    <circle cx="700" cy="260" r="2.4"/>
    <circle cx="800" cy="240" r="1.8"/>
    <circle cx="880" cy="220" r="2"/>
    <circle cx="560" cy="340" r="1.8"/>
    <circle cx="740" cy="380" r="2.2"/>
    <circle cx="840" cy="460" r="2"/>
    <circle cx="720" cy="500" r="1.6"/>
    <circle cx="600" cy="540" r="2"/>
    <circle cx="800" cy="580" r="1.8"/>
    <circle cx="920" cy="560" r="2.2"/>
    <circle cx="980" cy="480" r="1.8"/>
    <circle cx="1060" cy="400" r="2"/>
    <circle cx="1100" cy="300" r="1.8"/>
    <circle cx="1040" cy="200" r="2.2"/>
    <circle cx="960" cy="140" r="1.8"/>
    <circle cx="1080" cy="560" r="2"/>
    <circle cx="500" cy="180" r="1.6"/>
    <circle cx="520" cy="460" r="1.8"/>
  </g>

  <g stroke="#7C9DD6" stroke-opacity="0.18" stroke-width="1" fill="none">
    <line x1="600" y1="140" x2="660" y2="110"/>
    <line x1="660" y1="110"  x2="780" y2="120"/>
    <line x1="720" y1="170" x2="700" y2="260"/>
    <line x1="780" y1="120" x2="960" y2="140"/>
    <line x1="880" y1="220" x2="1040" y2="200"/>
    <line x1="740" y1="380" x2="840" y2="460"/>
    <line x1="840" y1="460" x2="980" y2="480"/>
    <line x1="980" y1="480" x2="1060" y2="400"/>
    <line x1="1060" y1="400" x2="1100" y2="300"/>
    <line x1="600" y1="540" x2="720" y2="500"/>
    <line x1="720" y1="500" x2="800" y2="580"/>
    <line x1="800" y1="580" x2="920" y2="560"/>
    <line x1="920" y1="560" x2="1080" y2="560"/>
    <line x1="560" y1="340" x2="740" y2="380"/>
    <line x1="500" y1="180" x2="600" y2="140"/>
  </g>

  <image x="770" y="217" width="260" height="260" href="/blog/covers/assets/deepseek-300.png"/>

  <g transform="translate(80,80)">
    <rect x="0" y="0" width="6" height="28" fill="url(#accent)"/>
    <text x="20" y="20" fill="#A8C4E8" font-size="13" font-weight="600" letter-spacing="2.5">DEEPSEEK · API UPDATE</text>
  </g>

  <text x="80" y="180" fill="#8896AB" font-size="14" font-weight="500" letter-spacing="1.5">MULTIMODAL · EXPERIMENTAL · LIVE</text>

  <text x="80" y="270" fill="#F0F4FA" font-size="72" font-weight="800" letter-spacing="-1.5">VISION,</text>
  <text x="80" y="345" fill="#A8C4E8" font-size="72" font-weight="800" letter-spacing="-1.5">ACTIVATED.</text>

  <text x="80" y="395" fill="#D4DBE6" font-size="19" font-weight="400">DeepSeek V4-Flash-Vision-Exp 上线</text>

  <text x="80" y="435" fill="#8896AB" font-size="16" font-weight="400">多模态 Agent 能力接近 Opus-4.8。</text>
  <text x="80" y="459" fill="#8896AB" font-size="16" font-weight="400">API 价格与 V4-Flash 保持一致。</text>

  <line x1="80" y1="500" x2="180" y2="500" stroke="#A8C4E8" stroke-width="2"/>

  <text x="80" y="540" fill="#6C7A8C" font-size="12" font-weight="500" letter-spacing="1.5">ACCESS VIA API</text>
  <text x="80" y="572" fill="#A8C4E8" font-size="15" font-weight="500" font-family="'JetBrains Mono','Fira Code',monospace">model = 'deepseek-v4-flash-vision-exp'</text>

  <g transform="translate(80,645)">
    <text x="0" y="0" fill="#5C6A7E" font-size="11" font-weight="600" letter-spacing="3">CATAITO</text>
    <text x="90" y="0" fill="#5C6A7E" font-size="11" font-weight="400" letter-spacing="1">— AI DISCOVERY ENGINE</text>
  </g>

  <g transform="translate(900,645)">
    <text x="0" y="0" fill="#5C6A7E" font-size="11" font-weight="500" letter-spacing="1.5">news · 2026.08.21</text>
  </g>
</svg>