<svg xmlns="http://www.w3.org/2000/svg" width="1200" height="630" viewBox="0 0 1200 630">
  <defs>
    <linearGradient id="bg" x1="0%" y1="0%" x2="100%" y2="100%">
      <stop offset="0%" style="stop-color:#0f172a"/>
      <stop offset="50%" style="stop-color:#1e293b"/>
      <stop offset="100%" style="stop-color:#0f172a"/>
    </linearGradient>
    <linearGradient id="stripe" x1="0%" y1="0%" x2="100%" y2="0%">
      <stop offset="0%" style="stop-color:#22d3ee"/>
      <stop offset="50%" style="stop-color:#6366f1"/>
      <stop offset="100%" style="stop-color:#a855f7"/>
    </linearGradient>
    <linearGradient id="brand" x1="0%" y1="0%" x2="100%" y2="100%">
      <stop offset="0%" style="stop-color:#22d3ee"/>
      <stop offset="50%" style="stop-color:#818cf8"/>
      <stop offset="100%" style="stop-color:#a855f7"/>
    </linearGradient>
    <linearGradient id="btn" x1="0%" y1="0%" x2="100%" y2="0%">
      <stop offset="0%" style="stop-color:#6366f1"/>
      <stop offset="100%" style="stop-color:#22d3ee"/>
    </linearGradient>
    <radialGradient id="orb1" cx="80%" cy="20%" r="50%">
      <stop offset="0%" style="stop-color:rgba(99,102,241,0.25)"/>
      <stop offset="100%" style="stop-color:transparent"/>
    </radialGradient>
    <radialGradient id="orb2" cx="20%" cy="90%" r="40%">
      <stop offset="0%" style="stop-color:rgba(34,211,238,0.15)"/>
      <stop offset="100%" style="stop-color:transparent"/>
    </radialGradient>
    <radialGradient id="orb3" cx="50%" cy="50%" r="50%">
      <stop offset="0%" style="stop-color:rgba(168,85,247,0.08)"/>
      <stop offset="100%" style="stop-color:transparent"/>
    </radialGradient>
  </defs>
  <rect width="1200" height="630" fill="url(#bg)"/>
  <rect width="1200" height="4" fill="url(#stripe)"/>
  <circle cx="900" cy="100" r="250" fill="url(#orb1)"/>
  <circle cx="200" cy="550" r="200" fill="url(#orb2)"/>
  <circle cx="600" cy="315" r="300" fill="url(#orb3)"/>
  <!-- Grid pattern -->
  <g opacity="0.04">
    <line x1="0" y1="48" x2="1200" y2="48" stroke="#818cf8" stroke-width="0.5"/><line x1="0" y1="96" x2="1200" y2="96" stroke="#818cf8" stroke-width="0.5"/><line x1="0" y1="144" x2="1200" y2="144" stroke="#818cf8" stroke-width="0.5"/><line x1="0" y1="192" x2="1200" y2="192" stroke="#818cf8" stroke-width="0.5"/><line x1="0" y1="240" x2="1200" y2="240" stroke="#818cf8" stroke-width="0.5"/><line x1="0" y1="288" x2="1200" y2="288" stroke="#818cf8" stroke-width="0.5"/><line x1="0" y1="336" x2="1200" y2="336" stroke="#818cf8" stroke-width="0.5"/><line x1="0" y1="384" x2="1200" y2="384" stroke="#818cf8" stroke-width="0.5"/><line x1="0" y1="432" x2="1200" y2="432" stroke="#818cf8" stroke-width="0.5"/><line x1="0" y1="480" x2="1200" y2="480" stroke="#818cf8" stroke-width="0.5"/><line x1="0" y1="528" x2="1200" y2="528" stroke="#818cf8" stroke-width="0.5"/><line x1="0" y1="576" x2="1200" y2="576" stroke="#818cf8" stroke-width="0.5"/><line x1="0" y1="624" x2="1200" y2="624" stroke="#818cf8" stroke-width="0.5"/><line x1="0" y1="672" x2="1200" y2="672" stroke="#818cf8" stroke-width="0.5"/>
    <line x1="48" y1="0" x2="48" y2="630" stroke="#818cf8" stroke-width="0.5"/><line x1="96" y1="0" x2="96" y2="630" stroke="#818cf8" stroke-width="0.5"/><line x1="144" y1="0" x2="144" y2="630" stroke="#818cf8" stroke-width="0.5"/><line x1="192" y1="0" x2="192" y2="630" stroke="#818cf8" stroke-width="0.5"/><line x1="240" y1="0" x2="240" y2="630" stroke="#818cf8" stroke-width="0.5"/><line x1="288" y1="0" x2="288" y2="630" stroke="#818cf8" stroke-width="0.5"/><line x1="336" y1="0" x2="336" y2="630" stroke="#818cf8" stroke-width="0.5"/><line x1="384" y1="0" x2="384" y2="630" stroke="#818cf8" stroke-width="0.5"/><line x1="432" y1="0" x2="432" y2="630" stroke="#818cf8" stroke-width="0.5"/><line x1="480" y1="0" x2="480" y2="630" stroke="#818cf8" stroke-width="0.5"/><line x1="528" y1="0" x2="528" y2="630" stroke="#818cf8" stroke-width="0.5"/><line x1="576" y1="0" x2="576" y2="630" stroke="#818cf8" stroke-width="0.5"/><line x1="624" y1="0" x2="624" y2="630" stroke="#818cf8" stroke-width="0.5"/><line x1="672" y1="0" x2="672" y2="630" stroke="#818cf8" stroke-width="0.5"/><line x1="720" y1="0" x2="720" y2="630" stroke="#818cf8" stroke-width="0.5"/><line x1="768" y1="0" x2="768" y2="630" stroke="#818cf8" stroke-width="0.5"/><line x1="816" y1="0" x2="816" y2="630" stroke="#818cf8" stroke-width="0.5"/><line x1="864" y1="0" x2="864" y2="630" stroke="#818cf8" stroke-width="0.5"/><line x1="912" y1="0" x2="912" y2="630" stroke="#818cf8" stroke-width="0.5"/><line x1="960" y1="0" x2="960" y2="630" stroke="#818cf8" stroke-width="0.5"/><line x1="1008" y1="0" x2="1008" y2="630" stroke="#818cf8" stroke-width="0.5"/><line x1="1056" y1="0" x2="1056" y2="630" stroke="#818cf8" stroke-width="0.5"/><line x1="1104" y1="0" x2="1104" y2="630" stroke="#818cf8" stroke-width="0.5"/><line x1="1152" y1="0" x2="1152" y2="630" stroke="#818cf8" stroke-width="0.5"/><line x1="1200" y1="0" x2="1200" y2="630" stroke="#818cf8" stroke-width="0.5"/><line x1="1248" y1="0" x2="1248" y2="630" stroke="#818cf8" stroke-width="0.5"/>
  </g>
  <!-- Content -->
  <rect x="60" y="34" width="48" height="48" rx="12" fill="url(#brand)"/>
  <text x="84" y="66" text-anchor="middle" font-family="system-ui" font-size="24" font-weight="800" fill="white">C</text>
  <text x="124" y="66" font-family="system-ui" font-size="22" font-weight="700" fill="#f1f5f9" letter-spacing="2">CATAITO</text>
  <text x="270" y="66" font-family="system-ui" font-size="22" font-weight="700" fill="#818cf8" letter-spacing="1">.COM</text>
  <!-- Badge -->
  <rect x="60" y="100" width="80" height="30" rx="15" fill="rgba(99,102,241,0.2)" stroke="rgba(99,102,241,0.3)" stroke-width="1"/>
  <text x="100" y="120" text-anchor="middle" font-family="system-ui" font-size="13" font-weight="600" fill="#a5b4fc">指南</text>
  <!-- Title -->
  <text x="60" y="220" font-family="system-ui" font-size="48" font-weight="800" fill="#f1f5f9">2026 年 AI 智能体</text>
  <text x="60" y="280" font-family="system-ui" font-size="48" font-weight="800" fill="url(#brand)">最佳 MCP 服务器</text>
  <text x="60" y="330" font-family="system-ui" font-size="20" fill="#94a3b8">55+ 款评测，覆盖 14 个分类</text>
  <!-- Stats -->
  <g transform="translate(60, 370)">
    <rect x="0" y="0" width="140" height="50" rx="8" fill="rgba(148,163,184,0.08)"/>
    <text x="16" y="22" font-family="system-ui" font-size="20" font-weight="700" fill="#e2e8f0">55</text>
    <text x="16" y="40" font-family="system-ui" font-size="12" fill="#64748b">MCP Servers</text>
    <rect x="155" y="0" width="140" height="50" rx="8" fill="rgba(148,163,184,0.08)"/>
    <text x="171" y="22" font-family="system-ui" font-size="20" font-weight="700" fill="#e2e8f0">14</text>
    <text x="171" y="40" font-family="system-ui" font-size="12" fill="#64748b">Categories</text>
    <rect x="310" y="0" width="140" height="50" rx="8" fill="rgba(148,163,184,0.08)"/>
    <text x="326" y="22" font-family="system-ui" font-size="20" font-weight="700" fill="#e2e8f0">5</text>
    <text x="326" y="40" font-family="system-ui" font-size="12" fill="#64748b">Languages</text>
  </g>
  <!-- Bottom bar -->
  <line x1="60" y1="570" x2="1140" y2="570" stroke="rgba(148,163,184,0.15)" stroke-width="1"/>
  <circle cx="76" cy="595" r="18" fill="url(#brand)"/>
  <text x="76" y="600" text-anchor="middle" font-family="system-ui" font-size="12" font-weight="700" fill="white">CT</text>
  <text x="102" y="599" font-family="system-ui" font-size="15" fill="#94a3b8">CATAITO 团队</text>
  <text x="200" y="599" font-family="system-ui" font-size="14" fill="#64748b">· 2026 年 8 月</text>
  <rect x="1010" y="582" width="150" height="36" rx="18" fill="url(#btn)"/>
  <text x="1085" y="606" text-anchor="middle" font-family="system-ui" font-size="14" font-weight="600" fill="white">浏览目录</text>
</svg>